<svg width="116" height="36" viewBox="0 0 116 36" fill="none" xmlns="http://www.w3.org/2000/svg">
<path d="M45.584 26.168C44.352 26.168 43.248 25.968 42.272 25.568C41.296 25.168 40.512 24.576 39.92 23.792C39.344 23.008 39.04 22.064 39.008 20.96H43.376C43.44 21.584 43.656 22.064 44.024 22.4C44.392 22.72 44.872 22.88 45.464 22.88C46.072 22.88 46.552 22.744 46.904 22.472C47.256 22.184 47.432 21.792 47.432 21.296C47.432 20.88 47.288 20.536 47 20.264C46.728 19.992 46.384 19.768 45.968 19.592C45.568 19.416 44.992 19.216 44.24 18.992C43.152 18.656 42.264 18.32 41.576 17.984C40.888 17.648 40.296 17.152 39.8 16.496C39.304 15.84 39.056 14.984 39.056 13.928C39.056 12.36 39.624 11.136 40.76 10.256C41.896 9.36 43.376 8.912 45.2 8.912C47.056 8.912 48.552 9.36 49.688 10.256C50.824 11.136 51.432 12.368 51.512 13.952H47.072C47.04 13.408 46.84 12.984 46.472 12.68C46.104 12.36 45.632 12.2 45.056 12.2C44.56 12.2 44.16 12.336 43.856 12.608C43.552 12.864 43.4 13.24 43.4 13.736C43.4 14.28 43.656 14.704 44.168 15.008C44.68 15.312 45.48 15.64 46.568 15.992C47.656 16.36 48.536 16.712 49.208 17.048C49.896 17.384 50.488 17.872 50.984 18.512C51.48 19.152 51.728 19.976 51.728 20.984C51.728 21.944 51.48 22.816 50.984 23.6C50.504 24.384 49.8 25.008 48.872 25.472C47.944 25.936 46.848 26.168 45.584 26.168ZM73.6456 9.152V26H69.5416V19.064H63.1576V26H59.0536V9.152H63.1576V15.752H69.5416V9.152H73.6456ZM85.5123 12.44V15.848H91.0083V19.016H85.5123V22.712H91.7283V26H81.4083V9.152H91.7283V12.44H85.5123ZM114.265 26H110.161L103.297 15.608V26H99.1927V9.152H103.297L110.161 19.592V9.152H114.265V26Z" fill="#333333"/>
<circle cx="15" cy="18" r="15" fill="#333333"/>
<circle cx="15" cy="18" r="2.04545" fill="white"/>
<circle cx="15" cy="18" r="10.5909" stroke="white" stroke-width="2" stroke-miterlimit="1.5404" stroke-linecap="round" stroke-linejoin="round" stroke-dasharray="152 54"/>
</svg>
